<?xml version="1.0" encoding="UTF-8"?>
<svg id="Layer_2" data-name="Layer 2" xmlns="http://www.w3.org/2000/svg" viewBox="0 0 1337.84 247.2">
  <defs>
    <style>
      .cls-1 {
        fill: #f1f2f2;
      }

      .cls-2 {
        fill: #d8d9da;
      }
    </style>
  </defs>
  <g id="Layer_1-2" data-name="Layer 1">
    <g>
      <path class="cls-2" d="M125.92,3.14h-25.12L0,242.74h33.6l27.01-64.69h106.14l26.38,64.69h34.23L125.92,3.14ZM73.17,147.9l40.51-96.09,41.45,96.09h-81.96Z"/>
      <rect class="cls-2" x="260.64" y="3.14" width="30.77" height="239.6"/>
      <rect class="cls-2" x="785.06" y="3.14" width="30.77" height="105.2"/>
      <rect class="cls-2" x="643.12" y="3.14" width="30.77" height="105.2"/>
      <rect class="cls-1" x="643.12" y="137.54" width="30.77" height="105.2"/>
      <rect class="cls-2" x="865.76" y="3.14" width="30.77" height="105.2"/>
      <rect class="cls-1" x="865.76" y="137.54" width="30.77" height="105.2"/>
      <polygon class="cls-1" points="785.06 108.34 693.62 108.34 693.62 139.11 785.06 139.11 785.06 242.74 815.83 242.74 815.83 139.11 815.83 108.34 785.06 108.34"/>
      <polygon class="cls-2" points="606.22 3.14 535.09 3.14 504.32 3.14 433.19 3.14 433.19 33.91 504.32 33.91 504.32 242.74 535.09 242.74 535.09 33.91 606.22 33.91 606.22 3.14"/>
      <rect class="cls-1" x="333.49" y="122.94" width="85.73" height="29.36"/>
      <path class="cls-2" d="M1303.91,52.96s-2.38-3.14-3.48-4.32c-17.9-19.21-42.68-26.76-66.02-11.01-15.3,10.32-19.32,34.94-6.99,49.02,13.76,15.72,58.39,22.07,79.41,34.59,49.63,29.56,36.42,102.14-16.38,120.42-40.87,14.15-91.39.71-109.34-41.36l25.67-17.48c8.19,18.1,24.27,31.57,44.21,34.26,30.19,4.08,62.7-16.12,54.44-49.94-6.48-26.52-45.89-31.49-67.73-39.27-22.84-8.14-41.54-20.93-46.79-46.21-9.36-45,21.23-78.95,65.53-81.52,29.01-1.68,56.94,10.98,71.72,36.21l-24.23,16.6Z"/>
      <g>
        <path class="cls-1" d="M934.38,123.9c0,64.24,49.08,117,111.79,122.86v-31.44c-45.41-5.71-80.53-44.46-80.53-91.42s35.12-85.71,80.53-91.42V1.05c-62.71,5.86-111.79,58.62-111.79,122.86Z"/>
        <path class="cls-1" d="M1129.72,181.49c-15.94,19.88-39.94,33.02-67.05,34.44v31.28c36.34-1.41,68.65-18.53,90.31-44.77l-23.26-20.95Z"/>
      </g>
      <path class="cls-2" d="M1128.61,66.18l24.15-19.85c-21.67-26.78-54.31-44.3-91.09-45.73v31.28c27.05,1.41,51,14.49,66.94,34.29Z"/>
    </g>
  </g>
</svg>